<mxfile host="app.diagrams.net" agent="Mozilla/5.0 (Windows NT 10.0; Win64; x64) AppleWebKit/537.36 (KHTML, like Gecko) Chrome/135.0.0.0 Safari/537.36 Edg/135.0.0.0" version="26.2.13">
  <diagram name="Страница — 1" id="DDRelqd3foFtQDBvqA2G">
    <mxGraphModel dx="1248" dy="699" grid="1" gridSize="10" guides="1" tooltips="1" connect="1" arrows="1" fold="1" page="1" pageScale="1" pageWidth="827" pageHeight="1169" math="0" shadow="0">
      <root>
        <mxCell id="0" />
        <mxCell id="1" parent="0" />
        <mxCell id="0o13hnP4myN7Ve84EtL6-1" value="Админ" style="shape=umlActor;verticalLabelPosition=bottom;verticalAlign=top;html=1;outlineConnect=0;rounded=1;" vertex="1" parent="1">
          <mxGeometry x="720" y="500" width="30" height="60" as="geometry" />
        </mxCell>
        <mxCell id="0o13hnP4myN7Ve84EtL6-2" value="Менеджер" style="shape=umlActor;verticalLabelPosition=bottom;verticalAlign=top;html=1;outlineConnect=0;rounded=1;" vertex="1" parent="1">
          <mxGeometry x="720" y="620" width="30" height="60" as="geometry" />
        </mxCell>
        <mxCell id="0o13hnP4myN7Ve84EtL6-21" style="rounded=1;orthogonalLoop=1;jettySize=auto;html=1;entryX=1;entryY=0.5;entryDx=0;entryDy=0;exitX=0;exitY=0.3333333333333333;exitDx=0;exitDy=0;exitPerimeter=0;" edge="1" parent="1" source="0o13hnP4myN7Ve84EtL6-3" target="0o13hnP4myN7Ve84EtL6-13">
          <mxGeometry relative="1" as="geometry" />
        </mxCell>
        <mxCell id="0o13hnP4myN7Ve84EtL6-23" value="Оформляет" style="edgeLabel;html=1;align=center;verticalAlign=middle;resizable=0;points=[];rounded=1;" vertex="1" connectable="0" parent="0o13hnP4myN7Ve84EtL6-21">
          <mxGeometry x="0.0919" relative="1" as="geometry">
            <mxPoint as="offset" />
          </mxGeometry>
        </mxCell>
        <mxCell id="0o13hnP4myN7Ve84EtL6-30" style="rounded=1;orthogonalLoop=1;jettySize=auto;html=1;entryX=1;entryY=0.5;entryDx=0;entryDy=0;exitX=0;exitY=0.3333333333333333;exitDx=0;exitDy=0;exitPerimeter=0;" edge="1" parent="1" source="0o13hnP4myN7Ve84EtL6-3" target="0o13hnP4myN7Ve84EtL6-28">
          <mxGeometry relative="1" as="geometry" />
        </mxCell>
        <mxCell id="0o13hnP4myN7Ve84EtL6-32" value="Предоставляет" style="edgeLabel;html=1;align=center;verticalAlign=middle;resizable=0;points=[];rounded=1;" vertex="1" connectable="0" parent="0o13hnP4myN7Ve84EtL6-30">
          <mxGeometry x="0.2441" relative="1" as="geometry">
            <mxPoint as="offset" />
          </mxGeometry>
        </mxCell>
        <mxCell id="0o13hnP4myN7Ve84EtL6-34" style="rounded=1;orthogonalLoop=1;jettySize=auto;html=1;exitX=1;exitY=0.3333333333333333;exitDx=0;exitDy=0;exitPerimeter=0;entryX=0;entryY=0.5;entryDx=0;entryDy=0;" edge="1" parent="1" source="0o13hnP4myN7Ve84EtL6-3" target="0o13hnP4myN7Ve84EtL6-36">
          <mxGeometry relative="1" as="geometry">
            <mxPoint x="560" y="540" as="targetPoint" />
          </mxGeometry>
        </mxCell>
        <mxCell id="0o13hnP4myN7Ve84EtL6-3" value="Диспечер" style="shape=umlActor;verticalLabelPosition=bottom;verticalAlign=top;html=1;outlineConnect=0;rounded=1;" vertex="1" parent="1">
          <mxGeometry x="480" y="380" width="30" height="60" as="geometry" />
        </mxCell>
        <mxCell id="0o13hnP4myN7Ve84EtL6-18" style="rounded=1;orthogonalLoop=1;jettySize=auto;html=1;exitX=0;exitY=0.3333333333333333;exitDx=0;exitDy=0;exitPerimeter=0;entryX=1;entryY=0.5;entryDx=0;entryDy=0;" edge="1" parent="1" source="0o13hnP4myN7Ve84EtL6-4" target="0o13hnP4myN7Ve84EtL6-17">
          <mxGeometry relative="1" as="geometry" />
        </mxCell>
        <mxCell id="0o13hnP4myN7Ve84EtL6-25" value="Везет" style="edgeLabel;html=1;align=center;verticalAlign=middle;resizable=0;points=[];rounded=1;" vertex="1" connectable="0" parent="0o13hnP4myN7Ve84EtL6-18">
          <mxGeometry x="-0.028" relative="1" as="geometry">
            <mxPoint as="offset" />
          </mxGeometry>
        </mxCell>
        <mxCell id="0o13hnP4myN7Ve84EtL6-35" style="rounded=1;orthogonalLoop=1;jettySize=auto;html=1;entryX=0;entryY=0.5;entryDx=0;entryDy=0;exitX=1;exitY=0.3333333333333333;exitDx=0;exitDy=0;exitPerimeter=0;" edge="1" parent="1" source="0o13hnP4myN7Ve84EtL6-4" target="0o13hnP4myN7Ve84EtL6-36">
          <mxGeometry relative="1" as="geometry">
            <mxPoint x="560" y="540" as="targetPoint" />
          </mxGeometry>
        </mxCell>
        <mxCell id="0o13hnP4myN7Ve84EtL6-4" value="Водитель" style="shape=umlActor;verticalLabelPosition=bottom;verticalAlign=top;html=1;outlineConnect=0;rounded=1;" vertex="1" parent="1">
          <mxGeometry x="480" y="620" width="30" height="60" as="geometry" />
        </mxCell>
        <mxCell id="0o13hnP4myN7Ve84EtL6-15" style="rounded=1;orthogonalLoop=1;jettySize=auto;html=1;exitX=1;exitY=0.3333333333333333;exitDx=0;exitDy=0;exitPerimeter=0;entryX=0;entryY=0.5;entryDx=0;entryDy=0;" edge="1" parent="1" source="0o13hnP4myN7Ve84EtL6-8" target="0o13hnP4myN7Ve84EtL6-13">
          <mxGeometry relative="1" as="geometry" />
        </mxCell>
        <mxCell id="0o13hnP4myN7Ve84EtL6-22" value="Заказывает" style="edgeLabel;html=1;align=center;verticalAlign=middle;resizable=0;points=[];rounded=1;" vertex="1" connectable="0" parent="0o13hnP4myN7Ve84EtL6-15">
          <mxGeometry x="0.1955" relative="1" as="geometry">
            <mxPoint as="offset" />
          </mxGeometry>
        </mxCell>
        <mxCell id="0o13hnP4myN7Ve84EtL6-20" style="rounded=1;orthogonalLoop=1;jettySize=auto;html=1;exitX=1;exitY=0.3333333333333333;exitDx=0;exitDy=0;exitPerimeter=0;entryX=0;entryY=0.5;entryDx=0;entryDy=0;" edge="1" parent="1" source="0o13hnP4myN7Ve84EtL6-8" target="0o13hnP4myN7Ve84EtL6-17">
          <mxGeometry relative="1" as="geometry" />
        </mxCell>
        <mxCell id="0o13hnP4myN7Ve84EtL6-26" value="Едет" style="edgeLabel;html=1;align=center;verticalAlign=middle;resizable=0;points=[];rounded=1;" vertex="1" connectable="0" parent="0o13hnP4myN7Ve84EtL6-20">
          <mxGeometry x="-0.0667" relative="1" as="geometry">
            <mxPoint as="offset" />
          </mxGeometry>
        </mxCell>
        <mxCell id="0o13hnP4myN7Ve84EtL6-29" style="rounded=1;orthogonalLoop=1;jettySize=auto;html=1;entryX=0;entryY=0.5;entryDx=0;entryDy=0;exitX=1;exitY=0.3333333333333333;exitDx=0;exitDy=0;exitPerimeter=0;" edge="1" parent="1" source="0o13hnP4myN7Ve84EtL6-8" target="0o13hnP4myN7Ve84EtL6-28">
          <mxGeometry relative="1" as="geometry" />
        </mxCell>
        <mxCell id="0o13hnP4myN7Ve84EtL6-31" value="Запрашивает" style="edgeLabel;html=1;align=center;verticalAlign=middle;resizable=0;points=[];rounded=1;" vertex="1" connectable="0" parent="0o13hnP4myN7Ve84EtL6-29">
          <mxGeometry x="0.2088" y="2" relative="1" as="geometry">
            <mxPoint as="offset" />
          </mxGeometry>
        </mxCell>
        <mxCell id="0o13hnP4myN7Ve84EtL6-8" value="Клиент" style="shape=umlActor;verticalLabelPosition=bottom;verticalAlign=top;html=1;outlineConnect=0;rounded=1;" vertex="1" parent="1">
          <mxGeometry x="200" y="500" width="30" height="60" as="geometry" />
        </mxCell>
        <mxCell id="0o13hnP4myN7Ve84EtL6-13" value="Заказ машины" style="ellipse;whiteSpace=wrap;html=1;fillColor=#ffe6cc;strokeColor=#d79b00;rounded=1;" vertex="1" parent="1">
          <mxGeometry x="320" y="440" width="80" height="40" as="geometry" />
        </mxCell>
        <mxCell id="0o13hnP4myN7Ve84EtL6-17" value="Извоз" style="ellipse;whiteSpace=wrap;html=1;fillColor=#ffe6cc;strokeColor=#d79b00;rounded=1;" vertex="1" parent="1">
          <mxGeometry x="320" y="560" width="80" height="40" as="geometry" />
        </mxCell>
        <mxCell id="0o13hnP4myN7Ve84EtL6-28" value="Запрос сведений" style="ellipse;whiteSpace=wrap;html=1;fillColor=#ffe6cc;strokeColor=#d79b00;rounded=1;" vertex="1" parent="1">
          <mxGeometry x="320" y="320" width="80" height="40" as="geometry" />
        </mxCell>
        <mxCell id="0o13hnP4myN7Ve84EtL6-36" value="Запрос сведений" style="ellipse;whiteSpace=wrap;html=1;fillColor=#ffe6cc;strokeColor=#d79b00;rounded=1;" vertex="1" parent="1">
          <mxGeometry x="610" y="560" width="80" height="40" as="geometry" />
        </mxCell>
        <mxCell id="0o13hnP4myN7Ve84EtL6-38" value="Запрос сведений" style="ellipse;whiteSpace=wrap;html=1;fillColor=#ffe6cc;strokeColor=#d79b00;rounded=1;" vertex="1" parent="1">
          <mxGeometry x="600" y="440" width="80" height="40" as="geometry" />
        </mxCell>
      </root>
    </mxGraphModel>
  </diagram>
</mxfile>
